<svg width="51" height="51" viewBox="0 0 51 51" fill="none" xmlns="http://www.w3.org/2000/svg">
<g clip-path="url(#clip0_888_6654)">
<path d="M9.31229 0C4.15369 0 0 4.15369 0 9.31229V41.6878C0 46.8464 4.15369 51 9.31229 51H26.8595V31.0622H21.5874V23.884H26.8595V17.7512C26.8595 12.933 29.9745 8.50904 37.1503 8.50904C40.0557 8.50904 42.2041 8.78796 42.2041 8.78796L42.0352 15.4913C42.0352 15.4913 39.8441 15.4706 37.4531 15.4706C34.8654 15.4706 34.4505 16.6629 34.4505 18.6422V23.884H42.2407L41.9013 31.0623H34.4505V51.0001H41.6877C46.8463 51.0001 51 46.8464 51 41.6878V9.31234C51 4.15375 46.8463 5.1e-05 41.6877 5.1e-05H9.31224L9.31229 0Z" fill="#F84104"/>
</g>
<defs>
<clipPath id="clip0_888_6654">
<rect width="51" height="51" fill="white"/>
</clipPath>
</defs>
</svg>
