<svg width="51" height="51" viewBox="0 0 51 51" fill="none" xmlns="http://www.w3.org/2000/svg">
<g clip-path="url(#clip0_888_6653)">
<path d="M30.7825 26.0536C30.7825 23.2974 28.5297 21.0546 25.7609 21.0546C22.9924 21.0546 20.7397 23.2974 20.7397 26.0536C20.7397 28.8106 22.9924 31.0529 25.7609 31.0529C28.5297 31.0529 30.7825 28.8106 30.7825 26.0536ZM38.2428 0.0307617H12.7574C5.7359 0.0307617 0.0234375 5.71838 0.0234375 12.7092V16.2418H18.7615C20.7387 14.8395 23.1535 14.0111 25.7609 14.0111C28.3682 14.0111 30.7834 14.8395 32.7607 16.2418H50.9767V12.7092C50.9767 5.71833 45.2643 0.0307617 38.2428 0.0307617ZM43.3999 12.0889C43.3999 12.8637 42.7634 13.4977 41.985 13.4977H37.6133C36.835 13.4977 36.1984 12.8637 36.1984 12.0889V7.736C36.1984 6.96131 36.8349 6.32727 37.6133 6.32727H41.985C42.7634 6.32727 43.3999 6.9612 43.3999 7.736V12.0889ZM37.8568 26.0536C37.8568 32.6946 32.4303 38.0964 25.7608 38.0964C19.0912 38.0964 13.6652 32.6946 13.6652 26.0536C13.6652 24.2254 14.0788 22.4915 14.8143 20.9374H0.0234375V38.2908C0.0234375 45.2822 5.7359 50.9693 12.7574 50.9693H38.2428C45.2643 50.9693 50.9768 45.2821 50.9768 38.2908V20.9374H36.7077C37.4432 22.4915 37.8568 24.2254 37.8568 26.0536Z" fill="#F84104"/>
</g>
<defs>
<clipPath id="clip0_888_6653">
<rect width="51" height="51" fill="white"/>
</clipPath>
</defs>
</svg>
