<svg width="24" height="22" viewBox="0 0 24 22" fill="none" xmlns="http://www.w3.org/2000/svg">
<path d="M17.4478 15.1411C16.5122 16.0018 14.5443 17.812 13.2115 19.038C12.4461 19.7421 11.2695 19.7418 10.5041 19.0377C9.19436 17.8329 7.26548 16.0586 6.26805 15.1411C3.18083 12.3012 3.18083 7.69684 6.26805 4.85696C9.35526 2.01708 14.3606 2.01708 17.4478 4.85696C20.535 7.69684 20.535 12.3012 17.4478 15.1411Z" stroke="#7000FF" stroke-width="2" stroke-linecap="round" stroke-linejoin="round"/>
<path d="M14.8224 9.99902C14.8224 11.5051 13.4952 12.726 11.8579 12.726C10.2207 12.726 8.89345 11.5051 8.89345 9.99902C8.89345 8.49295 10.2207 7.27203 11.8579 7.27203C13.4952 7.27203 14.8224 8.49295 14.8224 9.99902Z" stroke="#7000FF" stroke-width="2" stroke-linecap="round" stroke-linejoin="round"/>
</svg>
